<?xml version="1.0" encoding="UTF-8"?>
<!DOCTYPE svg PUBLIC "-//W3C//DTD SVG 1.1//EN" "http://www.w3.org/Graphics/SVG/1.1/DTD/svg11.dtd">
<svg xmlns="http://www.w3.org/2000/svg" version="1.1" width="32px" height="32px" style="shape-rendering:geometricPrecision; text-rendering:geometricPrecision; image-rendering:optimizeQuality; fill-rule:evenodd; clip-rule:evenodd" xmlns:xlink="http://www.w3.org/1999/xlink">
<g><path style="opacity:0.998" fill="#121212" d="M 10.5,-0.5 C 14.1667,-0.5 17.8333,-0.5 21.5,-0.5C 25.8333,1.83333 29.1667,5.16667 31.5,9.5C 31.5,13.8333 31.5,18.1667 31.5,22.5C 28.8333,25.8333 25.8333,28.8333 22.5,31.5C 18.1667,31.5 13.8333,31.5 9.5,31.5C 5.16667,29.1667 1.83333,25.8333 -0.5,21.5C -0.5,17.5 -0.5,13.5 -0.5,9.5C 0.271873,8.30646 1.27187,7.30646 2.5,6.5C 4.16667,5.5 5.5,4.16667 6.5,2.5C 7.59026,1.14294 8.92359,0.142944 10.5,-0.5 Z"/></g>
<g><path style="opacity:0.698" fill="#696969" d="M 6.5,2.5 C 5.5,4.16667 4.16667,5.5 2.5,6.5C 2.83333,4.16667 4.16667,2.83333 6.5,2.5 Z"/></g>
<g><path style="opacity:1" fill="#e8e8e8" d="M 11.5,10.5 C 14.1667,10.5 16.8333,10.5 19.5,10.5C 16.8932,21.1001 14.2265,21.1001 11.5,10.5 Z"/></g>
<g><path style="opacity:1" fill="#f0f0f0" d="M 6.5,11.5 C 7.37644,11.3691 8.04311,11.7025 8.5,12.5C 10.0198,14.6621 11.0198,16.9954 11.5,19.5C 8.48162,19.6646 5.48162,19.498 2.5,19C 4.4944,16.8425 5.82774,14.3425 6.5,11.5 Z"/></g>
<g><path style="opacity:1" fill="#f3f3f3" d="M 22.5,11.5 C 23.3764,11.3691 24.0431,11.7025 24.5,12.5C 26.0198,14.6621 27.0198,16.9954 27.5,19.5C 24.7531,19.8134 22.0865,19.48 19.5,18.5C 20.7878,16.2612 21.7878,13.9279 22.5,11.5 Z"/></g>
</svg>
